<svg width="24" height="19" viewBox="0 0 24 19" fill="none" xmlns="http://www.w3.org/2000/svg">
<path d="M21 0H2.33333C1.05 0 0.0116667 1.05 0.0116667 2.33333L0 16.3333C0 17.6167 1.05 18.6667 2.33333 18.6667H21C22.2833 18.6667 23.3333 17.6167 23.3333 16.3333V2.33333C23.3333 1.05 22.2833 0 21 0ZM21 4.11833C21 4.45944 20.8243 4.77649 20.535 4.95728L12.1967 10.1688C11.8724 10.3714 11.4609 10.3714 11.1367 10.1688L2.79832 4.95728C2.50906 4.77649 2.33333 4.45944 2.33333 4.11833C2.33333 3.34128 3.18807 2.86754 3.84701 3.27938L11.1367 7.83542C11.4609 8.03809 11.8724 8.03809 12.1967 7.83542L19.4863 3.27938C20.1453 2.86754 21 3.34128 21 4.11833Z" fill="#AFAFAF"/>
</svg>
