<svg width="152" height="317" viewBox="0 0 152 317" fill="none" xmlns="http://www.w3.org/2000/svg">
<g filter="url(#filter0_d_54_2112)">
<path d="M2.58984 174.733L3.58984 25.7335L73.0898 67.2335L2.58984 174.733Z" fill="#FFE976" stroke="#FCEC99"/>
<path d="M73.5898 67.7335L3.08984 174.233L143.09 108.233L73.5898 67.7335Z" fill="#EED35B" stroke="#EED35B"/>
<path d="M73.5898 66.7335L115.09 2.23346L4.58984 25.7335L73.5898 66.7335Z" fill="#FF4D5D"/>
<path d="M73.5898 66.7335L115.09 2.23346L4.58984 25.7335L73.5898 66.7335Z" fill="#FF4D5D"/>
<path d="M73.5898 66.7335L115.09 2.23346L4.58984 25.7335L73.5898 66.7335Z" fill="#FF4D5D"/>
<path d="M73.5898 66.7335L115.09 2.23346L4.58984 25.7335L73.5898 66.7335Z" fill="#FF4D5D"/>
<path d="M73.5898 66.7335L115.09 2.23346L4.58984 25.7335L73.5898 66.7335Z" fill="#FF4D5D"/>
<path d="M73.5898 66.7335L115.09 2.23346L4.58984 25.7335L73.5898 66.7335Z" stroke="#F3616E"/>
<path d="M73.5898 66.7335L115.09 2.23346L4.58984 25.7335L73.5898 66.7335Z" stroke="#F3616E"/>
<path d="M73.5898 66.7335L115.09 2.23346L4.58984 25.7335L73.5898 66.7335Z" stroke="#F3616E"/>
<path d="M73.5898 66.7335L115.09 2.23346L4.58984 25.7335L73.5898 66.7335Z" stroke="#F3616E"/>
<path d="M73.5898 66.7335L115.09 2.23346L4.58984 25.7335L73.5898 66.7335Z" stroke="#F3616E"/>
<path d="M74.0918 67.2662L142.885 107.26L115.59 2.23576L74.0918 67.2662Z" fill="#EA2B43" stroke="#EA2B43"/>
</g>
<path d="M2.58984 173.911C2.40761 175.01 1.86867 175.878 1.22256 178.18C0.496666 180.768 0.576439 186.701 1.67539 190.791C2.36525 193.358 4.05616 195.387 6.18164 197.509C9.08984 200.411 11.0579 201.468 13.2696 203.125C16.0859 205.235 19.6949 208.636 25.9572 214.432C29.2719 217.5 32.9485 221.514 37.1041 227.686C38.8844 230.329 39.9619 233.122 41.3453 236.071C42.6276 238.805 42.7231 243.052 42.9164 250.871C43.0372 255.758 39.7963 258.89 37.1262 261.386C35.0892 263.29 31.8882 264.423 27.382 265.257C19.8553 266.65 16.2058 266.115 13.0898 263.911C11.9143 263.08 10.5898 261.911 10.2461 260.116C9.88086 258.208 10.5112 256.338 11.704 254.869C14.2102 251.783 17.1325 250.628 19.4353 249.342C22.1711 247.813 25.5927 246.95 28.7294 245.934C32.1443 244.828 36.4497 243.449 40.4148 242.712C46.8445 241.516 54.6845 242.521 57.628 243.441C61.7976 244.743 64.8231 248.496 67.5898 251.911C70.1316 255.049 70.5227 258.713 71.351 262.024C72.2499 265.616 72.9194 270.652 73.3777 274.361C73.7859 277.663 74.0239 291.185 74.5733 299.12C74.8114 302.559 75.4928 306.205 75.7717 308.875C76.415 311.181 76.9673 312.838 77.3345 313.939C77.5195 314.494 77.7018 315.041 77.8895 316.157" stroke="#FFC0C5" stroke-width="1.5" stroke-linecap="round"/>
<defs>
<filter id="filter0_d_54_2112" x="0.686279" y="0" width="150.477" height="183.425" filterUnits="userSpaceOnUse" color-interpolation-filters="sRGB">
<feFlood flood-opacity="0" result="BackgroundImageFix"/>
<feColorMatrix in="SourceAlpha" type="matrix" values="0 0 0 0 0 0 0 0 0 0 0 0 0 0 0 0 0 0 127 0" result="hardAlpha"/>
<feOffset dx="3" dy="3"/>
<feGaussianBlur stdDeviation="2"/>
<feComposite in2="hardAlpha" operator="out"/>
<feColorMatrix type="matrix" values="0 0 0 0 0 0 0 0 0 0 0 0 0 0 0 0 0 0 0.15 0"/>
<feBlend mode="normal" in2="BackgroundImageFix" result="effect1_dropShadow_54_2112"/>
<feBlend mode="normal" in="SourceGraphic" in2="effect1_dropShadow_54_2112" result="shape"/>
</filter>
</defs>
</svg>
