<svg width="230" height="495" viewBox="0 0 230 495" fill="none" xmlns="http://www.w3.org/2000/svg">
<path d="M148.893 205.84C141.033 219.769 140.893 224.048 139.285 228.342C137.462 233.21 134.824 238.695 132.497 244.239C128.623 253.47 126.953 258.362 125.522 263.546C124.181 268.403 122.664 274.789 122.476 286.043C122.344 293.981 129.42 304.449 136.749 310.727C141.409 314.719 145.869 316.63 153.364 320.383C161.039 324.226 166.243 326.646 171.958 330.742C182.364 338.2 185.292 350.042 184.893 354.84C184.393 360.84 183.078 366.664 170.607 379.146C160.569 389.192 148.056 392.764 138.078 395.273C129.113 397.528 122.31 395.284 120.171 394.571C118.032 393.858 116.23 392.432 114.981 390.292C113.812 388.29 113.721 385.644 114.075 382.968C114.41 380.438 116.573 378.492 118.353 376.706C122.583 372.464 132.172 368.153 140.314 373.65C143.558 375.84 142.472 375.595 143.558 376.674C149.893 382.968 145.526 392.399 146.067 397.761C146.821 405.229 152.667 413.481 156.597 419.561C161.035 426.427 163.39 431.002 168.923 441.527C172.189 447.74 176.966 452.448 181.437 455.676C186.388 459.25 191.613 462.464 197.162 466.57C203.474 471.242 209.478 481.014 215.209 486.054C216.995 487.127 219.472 488.542 221.455 489.448C223.439 490.354 224.855 490.708 228.458 493.217" stroke="#F2C6DF" stroke-width="2" stroke-linecap="round"/>
<g filter="url(#filter0_d_54_2113)">
<path d="M148.387 207.844L20.9963 132.48L91.7516 93.1582L148.387 207.844Z" fill="#FF8838" stroke="#FF8838"/>
<path d="M92.4363 92.9747L149.228 207.374L162.327 53.1518L92.4363 92.9747Z" fill="#EE6A0F" stroke="#EE6A0F"/>
<path d="M91.5713 92.4745L56.5758 24.2263L21.4992 131.614L91.5713 92.4745Z" fill="#FFA5D8"/>
<path d="M91.5713 92.4745L56.5758 24.2263L21.4992 131.614L91.5713 92.4745Z" fill="#FFA5D8"/>
<path d="M91.5713 92.4745L56.5758 24.2263L21.4992 131.614L91.5713 92.4745Z" fill="#FFA5D8"/>
<path d="M91.5713 92.4745L56.5758 24.2263L21.4992 131.614L91.5713 92.4745Z" fill="#FFA5D8"/>
<path d="M91.5713 92.4745L56.5758 24.2263L21.4992 131.614L91.5713 92.4745Z" fill="#FFA5D8"/>
<path d="M91.5713 92.4745L56.5758 24.2263L21.4992 131.614L91.5713 92.4745Z" stroke="#FFA5D8"/>
<path d="M91.5713 92.4745L56.5758 24.2263L21.4992 131.614L91.5713 92.4745Z" stroke="#FFA5D8"/>
<path d="M91.5713 92.4745L56.5758 24.2263L21.4992 131.614L91.5713 92.4745Z" stroke="#FFA5D8"/>
<path d="M91.5713 92.4745L56.5758 24.2263L21.4992 131.614L91.5713 92.4745Z" stroke="#FFA5D8"/>
<path d="M91.5713 92.4745L56.5758 24.2263L21.4992 131.614L91.5713 92.4745Z" stroke="#FFA5D8"/>
<path d="M91.8869 92.3499L161.382 52.8471L57.3894 23.8535L91.8869 92.3499Z" fill="#F186C3" stroke="#F186C3"/>
</g>
<defs>
<filter id="filter0_d_54_2113" x="19.9913" y="19.9303" width="150.914" height="194.267" filterUnits="userSpaceOnUse" color-interpolation-filters="sRGB">
<feFlood flood-opacity="0" result="BackgroundImageFix"/>
<feColorMatrix in="SourceAlpha" type="matrix" values="0 0 0 0 0 0 0 0 0 0 0 0 0 0 0 0 0 0 127 0" result="hardAlpha"/>
<feOffset dx="4" dy="1"/>
<feGaussianBlur stdDeviation="2"/>
<feComposite in2="hardAlpha" operator="out"/>
<feColorMatrix type="matrix" values="0 0 0 0 0 0 0 0 0 0 0 0 0 0 0 0 0 0 0.15 0"/>
<feBlend mode="normal" in2="BackgroundImageFix" result="effect1_dropShadow_54_2113"/>
<feBlend mode="normal" in="SourceGraphic" in2="effect1_dropShadow_54_2113" result="shape"/>
</filter>
</defs>
</svg>
