<svg width="168" height="135" viewBox="0 0 168 135" fill="none" xmlns="http://www.w3.org/2000/svg">
<path d="M109.961 13.064V18.9129L111.799 28.7726C114.361 45.3726 119.988 64.3678 128.677 85.7584C133.357 97.2335 140.097 108.04 148.898 118.178C150.458 119.961 152.408 121.576 154.747 123.025H154.914L142.548 134.388C142.548 133.831 141.211 131.993 138.537 128.874C119.263 106.815 105.616 71.7208 97.5943 23.5921C97.0373 20.5841 96.3688 17.8546 95.589 15.4036L109.961 13.064ZM51.9723 13.8995L66.6783 15.0693C66.0099 15.7378 65.4528 18.9129 65.0072 24.5948C61.4421 64.145 49.8556 98.0691 30.2476 126.367C27.5737 130.601 26.2368 132.996 26.2368 133.553L12.1993 123.359C24.2315 110.547 32.42 97.8463 36.765 85.257C44.0066 68.2114 48.8529 49.5504 51.3039 29.274C51.7495 23.4807 51.9723 18.3559 51.9723 13.8995Z" fill="url(#paint0_linear_277_1427)"/>
<path d="M154.491 15.3716C159.22 12.711 162.471 0 162.471 0C162.471 0 136.462 7.58496 83.5567 7.58496C30.6513 7.58496 4.64192 0 4.64192 0C6.64325 7.58522 9.20127 13.6301 12.6221 15.3716C16.2021 17.0579 18.6173 17.8756 23.2623 19.0601L39.8137 21.519C74.2931 23.8973 93.1846 23.6471 127.004 21.519C139.609 20.0976 149.762 18.0323 154.491 15.3716Z" fill="url(#paint1_linear_277_1427)"/>
<defs>
<linearGradient id="paint0_linear_277_1427" x1="84" y1="12.3857" x2="84" y2="133.386" gradientUnits="userSpaceOnUse">
<stop stop-color="#FF2500"/>
<stop offset="1" stop-color="#FF9900"/>
</linearGradient>
<linearGradient id="paint1_linear_277_1427" x1="83.5567" y1="2.59114e-07" x2="84.8356" y2="86.6984" gradientUnits="userSpaceOnUse">
<stop stop-color="#FF2600"/>
<stop offset="0.802885" stop-color="#FF2600"/>
<stop offset="1" stop-color="#FE9700"/>
</linearGradient>
</defs>
</svg>
