<svg width="37" height="36" viewBox="0 0 37 36" fill="none" xmlns="http://www.w3.org/2000/svg">
<rect x="0.5" width="36" height="36" rx="4.5" fill="white"/>
<path d="M22.266 9.56V10.505L22.563 12.098C22.977 14.78 23.886 17.849 25.29 21.305C26.046 23.159 27.135 24.905 28.557 26.543C28.809 26.831 29.124 27.092 29.502 27.326H29.529L27.531 29.162C27.531 29.072 27.315 28.775 26.883 28.271C23.769 24.707 21.564 19.037 20.268 11.261C20.178 10.775 20.07 10.334 19.944 9.938L22.266 9.56ZM12.897 9.695L15.273 9.884C15.165 9.992 15.075 10.505 15.003 11.423C14.427 17.813 12.555 23.294 9.387 27.866C8.955 28.55 8.739 28.937 8.739 29.027L6.471 27.38C8.415 25.31 9.738 23.258 10.44 21.224C11.61 18.47 12.393 15.455 12.789 12.179C12.861 11.243 12.897 10.415 12.897 9.695Z" fill="url(#paint0_linear_6479_3833)"/>
<path d="M29.4607 9.48354C30.2247 9.05367 30.75 7 30.75 7C30.75 7 26.5478 8.22548 18 8.22548C9.45225 8.22548 5.25 7 5.25 7C5.57335 8.22552 5.98664 9.20217 6.53933 9.48354C7.11773 9.75599 7.50795 9.88811 8.25843 10.0795L10.9326 10.4768C16.5033 10.861 19.5555 10.8206 25.0197 10.4768C27.0562 10.2471 28.6966 9.91342 29.4607 9.48354Z" fill="url(#paint1_linear_6479_3833)"/>
<defs>
<linearGradient id="paint0_linear_6479_3833" x1="18" y1="9" x2="18" y2="29" gradientUnits="userSpaceOnUse">
<stop stop-color="#FF2500"/>
<stop offset="1" stop-color="#FF9900"/>
</linearGradient>
<linearGradient id="paint1_linear_6479_3833" x1="18" y1="7" x2="18.2066" y2="21.0076" gradientUnits="userSpaceOnUse">
<stop stop-color="#FF2600"/>
<stop offset="0.802885" stop-color="#FF2600"/>
<stop offset="1" stop-color="#FE9700"/>
</linearGradient>
</defs>
</svg>
